<mxfile host="app.diagrams.net" agent="Mozilla/5.0 (X11; Linux x86_64) AppleWebKit/537.36 (KHTML, like Gecko) Chrome/131.0.0.0 Safari/537.36" version="26.2.14">
  <diagram name="Seite-1" id="3UaLaNoQHusPB8Ups_Hn">
    <mxGraphModel dx="2180" dy="2372" grid="1" gridSize="10" guides="1" tooltips="1" connect="1" arrows="1" fold="1" page="1" pageScale="1" pageWidth="827" pageHeight="1169" math="0" shadow="0">
      <root>
        <mxCell id="0" />
        <mxCell id="1" parent="0" />
        <mxCell id="05BpNFQ8s_8MqioEpU-q-1" value="&lt;font style=&quot;color: rgb(153, 153, 153);&quot;&gt;MCU&lt;/font&gt;&lt;div&gt;ESP32&lt;/div&gt;" style="rounded=0;whiteSpace=wrap;html=1;" vertex="1" parent="1">
          <mxGeometry x="200" y="-440" width="160" height="280" as="geometry" />
        </mxCell>
        <mxCell id="05BpNFQ8s_8MqioEpU-q-2" value="&lt;font style=&quot;color: rgb(153, 153, 153);&quot;&gt;Transceiver&lt;/font&gt;&lt;div&gt;SN65HVD230Q-Q1&lt;/div&gt;" style="rounded=0;whiteSpace=wrap;html=1;" vertex="1" parent="1">
          <mxGeometry x="450" y="-320" width="120" height="80" as="geometry" />
        </mxCell>
        <mxCell id="05BpNFQ8s_8MqioEpU-q-3" value="&lt;font style=&quot;color: rgb(153, 153, 153);&quot;&gt;Controller&lt;/font&gt;&lt;div&gt;MCP2515&lt;/div&gt;" style="rounded=0;whiteSpace=wrap;html=1;" vertex="1" parent="1">
          <mxGeometry x="450" y="-440" width="120" height="80" as="geometry" />
        </mxCell>
        <mxCell id="05BpNFQ8s_8MqioEpU-q-4" value="&lt;font style=&quot;color: rgb(153, 153, 153);&quot;&gt;VReg&lt;/font&gt;&lt;div&gt;&lt;font style=&quot;font-size: 8px;&quot;&gt;TLS850C2TE V33&lt;/font&gt;&lt;/div&gt;" style="rounded=0;whiteSpace=wrap;html=1;" vertex="1" parent="1">
          <mxGeometry x="40" y="-440" width="80" height="80" as="geometry" />
        </mxCell>
        <mxCell id="05BpNFQ8s_8MqioEpU-q-5" value="" style="endArrow=none;html=1;rounded=0;" edge="1" parent="1">
          <mxGeometry width="50" height="50" relative="1" as="geometry">
            <mxPoint x="40" y="-80" as="sourcePoint" />
            <mxPoint x="1440" y="-80" as="targetPoint" />
          </mxGeometry>
        </mxCell>
        <mxCell id="05BpNFQ8s_8MqioEpU-q-6" value="" style="shape=flexArrow;endArrow=classic;startArrow=classic;html=1;rounded=0;" edge="1" parent="1">
          <mxGeometry width="100" height="100" relative="1" as="geometry">
            <mxPoint x="510" y="-80" as="sourcePoint" />
            <mxPoint x="510" y="-240" as="targetPoint" />
          </mxGeometry>
        </mxCell>
        <mxCell id="05BpNFQ8s_8MqioEpU-q-8" value="" style="endArrow=classic;startArrow=classic;html=1;rounded=0;entryX=0.5;entryY=1;entryDx=0;entryDy=0;exitX=0.5;exitY=0;exitDx=0;exitDy=0;" edge="1" parent="1" source="05BpNFQ8s_8MqioEpU-q-2" target="05BpNFQ8s_8MqioEpU-q-3">
          <mxGeometry width="50" height="50" relative="1" as="geometry">
            <mxPoint x="440" y="-200" as="sourcePoint" />
            <mxPoint x="490" y="-250" as="targetPoint" />
          </mxGeometry>
        </mxCell>
        <mxCell id="05BpNFQ8s_8MqioEpU-q-9" value="" style="endArrow=classic;startArrow=classic;html=1;rounded=0;exitX=1.008;exitY=0.171;exitDx=0;exitDy=0;exitPerimeter=0;entryX=0;entryY=0.5;entryDx=0;entryDy=0;" edge="1" parent="1" target="05BpNFQ8s_8MqioEpU-q-3">
          <mxGeometry width="50" height="50" relative="1" as="geometry">
            <mxPoint x="370.96000000000004" y="-398.96000000000004" as="sourcePoint" />
            <mxPoint x="490" y="-250" as="targetPoint" />
          </mxGeometry>
        </mxCell>
        <mxCell id="05BpNFQ8s_8MqioEpU-q-10" value="" style="endArrow=classic;html=1;rounded=0;exitX=1;exitY=0.5;exitDx=0;exitDy=0;entryX=-0.017;entryY=0.171;entryDx=0;entryDy=0;entryPerimeter=0;" edge="1" parent="1" source="05BpNFQ8s_8MqioEpU-q-4" target="05BpNFQ8s_8MqioEpU-q-1">
          <mxGeometry width="50" height="50" relative="1" as="geometry">
            <mxPoint x="390" y="-200" as="sourcePoint" />
            <mxPoint x="440" y="-250" as="targetPoint" />
          </mxGeometry>
        </mxCell>
        <mxCell id="05BpNFQ8s_8MqioEpU-q-11" value="RX/TX" style="text;html=1;align=center;verticalAlign=middle;whiteSpace=wrap;rounded=0;" vertex="1" parent="1">
          <mxGeometry x="505" y="-354" width="60" height="30" as="geometry" />
        </mxCell>
        <mxCell id="05BpNFQ8s_8MqioEpU-q-12" value="SPI" style="text;html=1;align=center;verticalAlign=middle;whiteSpace=wrap;rounded=0;" vertex="1" parent="1">
          <mxGeometry x="382" y="-424" width="60" height="30" as="geometry" />
        </mxCell>
        <mxCell id="05BpNFQ8s_8MqioEpU-q-13" value="CAN_H/L" style="text;html=1;align=center;verticalAlign=middle;whiteSpace=wrap;rounded=0;" vertex="1" parent="1">
          <mxGeometry x="519" y="-175" width="60" height="30" as="geometry" />
        </mxCell>
        <mxCell id="05BpNFQ8s_8MqioEpU-q-15" value="" style="endArrow=classic;startArrow=classic;html=1;rounded=0;exitX=1;exitY=0.5;exitDx=0;exitDy=0;" edge="1" parent="1" source="05BpNFQ8s_8MqioEpU-q-3">
          <mxGeometry width="50" height="50" relative="1" as="geometry">
            <mxPoint x="340" y="-120" as="sourcePoint" />
            <mxPoint x="650" y="-400" as="targetPoint" />
          </mxGeometry>
        </mxCell>
        <mxCell id="05BpNFQ8s_8MqioEpU-q-16" value="&lt;font style=&quot;color: rgb(153, 153, 153);&quot;&gt;Controller&lt;/font&gt;&lt;div&gt;MCP2515&lt;/div&gt;" style="rounded=0;whiteSpace=wrap;html=1;" vertex="1" parent="1">
          <mxGeometry x="650" y="-440" width="120" height="80" as="geometry" />
        </mxCell>
        <mxCell id="05BpNFQ8s_8MqioEpU-q-17" value="&lt;font style=&quot;color: rgb(153, 153, 153);&quot;&gt;Transceiver&lt;/font&gt;&lt;div&gt;SN65HVD230Q-Q1&lt;/div&gt;" style="rounded=0;whiteSpace=wrap;html=1;" vertex="1" parent="1">
          <mxGeometry x="650" y="-320" width="120" height="80" as="geometry" />
        </mxCell>
        <mxCell id="05BpNFQ8s_8MqioEpU-q-18" value="RX/TX" style="text;html=1;align=center;verticalAlign=middle;whiteSpace=wrap;rounded=0;" vertex="1" parent="1">
          <mxGeometry x="706" y="-354" width="60" height="30" as="geometry" />
        </mxCell>
        <mxCell id="05BpNFQ8s_8MqioEpU-q-19" value="" style="shape=flexArrow;endArrow=classic;startArrow=classic;html=1;rounded=0;" edge="1" parent="1">
          <mxGeometry width="100" height="100" relative="1" as="geometry">
            <mxPoint x="710" y="-80" as="sourcePoint" />
            <mxPoint x="710" y="-240" as="targetPoint" />
          </mxGeometry>
        </mxCell>
        <mxCell id="05BpNFQ8s_8MqioEpU-q-20" value="CAN_H/L" style="text;html=1;align=center;verticalAlign=middle;whiteSpace=wrap;rounded=0;" vertex="1" parent="1">
          <mxGeometry x="719" y="-175" width="60" height="30" as="geometry" />
        </mxCell>
        <mxCell id="05BpNFQ8s_8MqioEpU-q-21" value="" style="endArrow=classic;startArrow=classic;html=1;rounded=0;entryX=0.5;entryY=1;entryDx=0;entryDy=0;exitX=0.5;exitY=0;exitDx=0;exitDy=0;" edge="1" parent="1" source="05BpNFQ8s_8MqioEpU-q-17" target="05BpNFQ8s_8MqioEpU-q-16">
          <mxGeometry width="50" height="50" relative="1" as="geometry">
            <mxPoint x="440" y="-200" as="sourcePoint" />
            <mxPoint x="490" y="-250" as="targetPoint" />
          </mxGeometry>
        </mxCell>
        <mxCell id="05BpNFQ8s_8MqioEpU-q-23" value="Powertrain" style="text;html=1;align=center;verticalAlign=middle;whiteSpace=wrap;rounded=0;" vertex="1" parent="1">
          <mxGeometry x="518" y="-159" width="70" height="30" as="geometry" />
        </mxCell>
        <mxCell id="05BpNFQ8s_8MqioEpU-q-24" value="Comfort" style="text;html=1;align=center;verticalAlign=middle;whiteSpace=wrap;rounded=0;" vertex="1" parent="1">
          <mxGeometry x="710" y="-159" width="70" height="30" as="geometry" />
        </mxCell>
        <mxCell id="05BpNFQ8s_8MqioEpU-q-25" value="SPI" style="text;html=1;align=center;verticalAlign=middle;whiteSpace=wrap;rounded=0;" vertex="1" parent="1">
          <mxGeometry x="580" y="-424" width="60" height="30" as="geometry" />
        </mxCell>
        <mxCell id="05BpNFQ8s_8MqioEpU-q-26" value="3.3V" style="text;html=1;align=center;verticalAlign=middle;whiteSpace=wrap;rounded=0;" vertex="1" parent="1">
          <mxGeometry x="130" y="-424" width="60" height="30" as="geometry" />
        </mxCell>
        <mxCell id="05BpNFQ8s_8MqioEpU-q-27" value="12V" style="rounded=0;whiteSpace=wrap;html=1;" vertex="1" parent="1">
          <mxGeometry x="40" y="-280" width="80" height="80" as="geometry" />
        </mxCell>
        <mxCell id="05BpNFQ8s_8MqioEpU-q-28" value="" style="endArrow=classic;html=1;rounded=0;entryX=0.5;entryY=1;entryDx=0;entryDy=0;exitX=0.5;exitY=0;exitDx=0;exitDy=0;" edge="1" parent="1" source="05BpNFQ8s_8MqioEpU-q-27" target="05BpNFQ8s_8MqioEpU-q-4">
          <mxGeometry width="50" height="50" relative="1" as="geometry">
            <mxPoint x="390" y="-200" as="sourcePoint" />
            <mxPoint x="440" y="-250" as="targetPoint" />
          </mxGeometry>
        </mxCell>
        <mxCell id="05BpNFQ8s_8MqioEpU-q-29" value="&lt;font style=&quot;color: rgb(153, 153, 153);&quot;&gt;Controller&lt;/font&gt;&lt;div&gt;MCP2515&lt;/div&gt;" style="rounded=0;whiteSpace=wrap;html=1;" vertex="1" parent="1">
          <mxGeometry x="850" y="-440" width="120" height="80" as="geometry" />
        </mxCell>
        <mxCell id="05BpNFQ8s_8MqioEpU-q-30" value="&lt;font style=&quot;color: rgb(153, 153, 153);&quot;&gt;Transceiver&lt;/font&gt;&lt;div&gt;SN65HVD230Q-Q1&lt;/div&gt;" style="rounded=0;whiteSpace=wrap;html=1;" vertex="1" parent="1">
          <mxGeometry x="850" y="-320" width="120" height="80" as="geometry" />
        </mxCell>
        <mxCell id="05BpNFQ8s_8MqioEpU-q-32" value="RX/TX" style="text;html=1;align=center;verticalAlign=middle;whiteSpace=wrap;rounded=0;" vertex="1" parent="1">
          <mxGeometry x="905" y="-354" width="60" height="30" as="geometry" />
        </mxCell>
        <mxCell id="05BpNFQ8s_8MqioEpU-q-33" value="" style="endArrow=classic;startArrow=classic;html=1;rounded=0;entryX=0.5;entryY=1;entryDx=0;entryDy=0;exitX=0.5;exitY=0;exitDx=0;exitDy=0;" edge="1" parent="1" source="05BpNFQ8s_8MqioEpU-q-30" target="05BpNFQ8s_8MqioEpU-q-29">
          <mxGeometry width="50" height="50" relative="1" as="geometry">
            <mxPoint x="690" y="-200" as="sourcePoint" />
            <mxPoint x="740" y="-250" as="targetPoint" />
          </mxGeometry>
        </mxCell>
        <mxCell id="05BpNFQ8s_8MqioEpU-q-34" value="SPI" style="text;html=1;align=center;verticalAlign=middle;whiteSpace=wrap;rounded=0;" vertex="1" parent="1">
          <mxGeometry x="780" y="-424" width="60" height="30" as="geometry" />
        </mxCell>
        <mxCell id="05BpNFQ8s_8MqioEpU-q-35" value="" style="endArrow=classic;startArrow=classic;html=1;rounded=0;entryX=0;entryY=0.5;entryDx=0;entryDy=0;exitX=1;exitY=0.5;exitDx=0;exitDy=0;" edge="1" parent="1" source="05BpNFQ8s_8MqioEpU-q-16" target="05BpNFQ8s_8MqioEpU-q-29">
          <mxGeometry width="50" height="50" relative="1" as="geometry">
            <mxPoint x="690" y="-200" as="sourcePoint" />
            <mxPoint x="740" y="-250" as="targetPoint" />
          </mxGeometry>
        </mxCell>
        <mxCell id="05BpNFQ8s_8MqioEpU-q-36" value="CAN_H/L" style="text;html=1;align=center;verticalAlign=middle;whiteSpace=wrap;rounded=0;" vertex="1" parent="1">
          <mxGeometry x="1118" y="-175" width="60" height="30" as="geometry" />
        </mxCell>
        <mxCell id="05BpNFQ8s_8MqioEpU-q-37" value="Infotainment" style="text;html=1;align=center;verticalAlign=middle;whiteSpace=wrap;rounded=0;" vertex="1" parent="1">
          <mxGeometry x="1110" y="-160" width="90" height="30" as="geometry" />
        </mxCell>
        <mxCell id="05BpNFQ8s_8MqioEpU-q-38" value="" style="endArrow=classic;html=1;rounded=0;entryX=0.5;entryY=1;entryDx=0;entryDy=0;" edge="1" parent="1" target="05BpNFQ8s_8MqioEpU-q-30">
          <mxGeometry width="50" height="50" relative="1" as="geometry">
            <mxPoint x="910" y="-80" as="sourcePoint" />
            <mxPoint x="900" y="-250" as="targetPoint" />
          </mxGeometry>
        </mxCell>
        <mxCell id="05BpNFQ8s_8MqioEpU-q-40" value="&lt;font style=&quot;color: rgb(153, 153, 153);&quot;&gt;Controller&lt;/font&gt;&lt;div&gt;MCP2515&lt;/div&gt;" style="rounded=0;whiteSpace=wrap;html=1;" vertex="1" parent="1">
          <mxGeometry x="1050" y="-440" width="120" height="80" as="geometry" />
        </mxCell>
        <mxCell id="05BpNFQ8s_8MqioEpU-q-41" value="&lt;font style=&quot;color: rgb(153, 153, 153);&quot;&gt;Transceiver&lt;/font&gt;&lt;div&gt;SN65HVD230Q-Q1&lt;/div&gt;" style="rounded=0;whiteSpace=wrap;html=1;" vertex="1" parent="1">
          <mxGeometry x="1050" y="-320" width="120" height="80" as="geometry" />
        </mxCell>
        <mxCell id="05BpNFQ8s_8MqioEpU-q-42" value="RX/TX" style="text;html=1;align=center;verticalAlign=middle;whiteSpace=wrap;rounded=0;" vertex="1" parent="1">
          <mxGeometry x="1105" y="-354" width="60" height="30" as="geometry" />
        </mxCell>
        <mxCell id="05BpNFQ8s_8MqioEpU-q-43" value="" style="endArrow=classic;startArrow=classic;html=1;rounded=0;entryX=0.5;entryY=1;entryDx=0;entryDy=0;exitX=0.5;exitY=0;exitDx=0;exitDy=0;" edge="1" parent="1" source="05BpNFQ8s_8MqioEpU-q-41" target="05BpNFQ8s_8MqioEpU-q-40">
          <mxGeometry width="50" height="50" relative="1" as="geometry">
            <mxPoint x="890" y="-200" as="sourcePoint" />
            <mxPoint x="940" y="-250" as="targetPoint" />
          </mxGeometry>
        </mxCell>
        <mxCell id="05BpNFQ8s_8MqioEpU-q-44" value="" style="endArrow=classic;html=1;rounded=0;exitX=0.5;exitY=1;exitDx=0;exitDy=0;" edge="1" parent="1" source="05BpNFQ8s_8MqioEpU-q-41">
          <mxGeometry width="50" height="50" relative="1" as="geometry">
            <mxPoint x="1110" y="-80" as="sourcePoint" />
            <mxPoint x="1110" y="-80" as="targetPoint" />
          </mxGeometry>
        </mxCell>
        <mxCell id="05BpNFQ8s_8MqioEpU-q-45" value="" style="endArrow=classic;startArrow=classic;html=1;rounded=0;exitX=1;exitY=0.5;exitDx=0;exitDy=0;entryX=0;entryY=0.5;entryDx=0;entryDy=0;" edge="1" parent="1" source="05BpNFQ8s_8MqioEpU-q-29" target="05BpNFQ8s_8MqioEpU-q-40">
          <mxGeometry width="50" height="50" relative="1" as="geometry">
            <mxPoint x="1020" y="-200" as="sourcePoint" />
            <mxPoint x="1070" y="-250" as="targetPoint" />
          </mxGeometry>
        </mxCell>
        <mxCell id="05BpNFQ8s_8MqioEpU-q-46" value="SPI" style="text;html=1;align=center;verticalAlign=middle;whiteSpace=wrap;rounded=0;" vertex="1" parent="1">
          <mxGeometry x="980" y="-424" width="60" height="30" as="geometry" />
        </mxCell>
        <mxCell id="05BpNFQ8s_8MqioEpU-q-47" value="CAN_H/L" style="text;html=1;align=center;verticalAlign=middle;whiteSpace=wrap;rounded=0;" vertex="1" parent="1">
          <mxGeometry x="918" y="-175" width="60" height="30" as="geometry" />
        </mxCell>
        <mxCell id="05BpNFQ8s_8MqioEpU-q-48" value="Infotainment" style="text;html=1;align=center;verticalAlign=middle;whiteSpace=wrap;rounded=0;" vertex="1" parent="1">
          <mxGeometry x="910" y="-160" width="90" height="30" as="geometry" />
        </mxCell>
        <mxCell id="05BpNFQ8s_8MqioEpU-q-49" value="" style="endArrow=classic;html=1;rounded=0;entryX=0.75;entryY=0;entryDx=0;entryDy=0;exitX=0.25;exitY=0;exitDx=0;exitDy=0;" edge="1" parent="1" source="05BpNFQ8s_8MqioEpU-q-3">
          <mxGeometry width="50" height="50" relative="1" as="geometry">
            <mxPoint x="640" y="-270" as="sourcePoint" />
            <mxPoint x="340" y="-440" as="targetPoint" />
            <Array as="points">
              <mxPoint x="480" y="-480" />
              <mxPoint x="340" y="-480" />
            </Array>
          </mxGeometry>
        </mxCell>
        <mxCell id="05BpNFQ8s_8MqioEpU-q-50" value="IRQ" style="text;html=1;align=center;verticalAlign=middle;whiteSpace=wrap;rounded=0;" vertex="1" parent="1">
          <mxGeometry x="381" y="-485" width="60" height="30" as="geometry" />
        </mxCell>
        <mxCell id="05BpNFQ8s_8MqioEpU-q-51" value="" style="endArrow=classic;html=1;rounded=0;entryX=0.625;entryY=0.008;entryDx=0;entryDy=0;exitX=0.25;exitY=0;exitDx=0;exitDy=0;entryPerimeter=0;" edge="1" parent="1" target="05BpNFQ8s_8MqioEpU-q-1">
          <mxGeometry width="50" height="50" relative="1" as="geometry">
            <mxPoint x="680" y="-440" as="sourcePoint" />
            <mxPoint x="540" y="-440" as="targetPoint" />
            <Array as="points">
              <mxPoint x="680" y="-520" />
              <mxPoint x="610" y="-520" />
              <mxPoint x="300" y="-520" />
            </Array>
          </mxGeometry>
        </mxCell>
        <mxCell id="05BpNFQ8s_8MqioEpU-q-52" value="IRQ" style="text;html=1;align=center;verticalAlign=middle;whiteSpace=wrap;rounded=0;" vertex="1" parent="1">
          <mxGeometry x="458" y="-524" width="60" height="30" as="geometry" />
        </mxCell>
        <mxCell id="05BpNFQ8s_8MqioEpU-q-53" value="" style="endArrow=classic;html=1;rounded=0;exitX=0.25;exitY=0;exitDx=0;exitDy=0;entryX=0.375;entryY=0;entryDx=0;entryDy=0;entryPerimeter=0;" edge="1" parent="1" source="05BpNFQ8s_8MqioEpU-q-29" target="05BpNFQ8s_8MqioEpU-q-1">
          <mxGeometry width="50" height="50" relative="1" as="geometry">
            <mxPoint x="610" y="-340" as="sourcePoint" />
            <mxPoint x="660" y="-390" as="targetPoint" />
            <Array as="points">
              <mxPoint x="880" y="-560" />
              <mxPoint x="260" y="-560" />
            </Array>
          </mxGeometry>
        </mxCell>
        <mxCell id="05BpNFQ8s_8MqioEpU-q-54" value="IRQ" style="text;html=1;align=center;verticalAlign=middle;whiteSpace=wrap;rounded=0;" vertex="1" parent="1">
          <mxGeometry x="540" y="-564" width="60" height="30" as="geometry" />
        </mxCell>
        <mxCell id="05BpNFQ8s_8MqioEpU-q-55" value="" style="endArrow=classic;html=1;rounded=0;exitX=0.25;exitY=0;exitDx=0;exitDy=0;entryX=0.15;entryY=-0.004;entryDx=0;entryDy=0;entryPerimeter=0;" edge="1" parent="1" source="05BpNFQ8s_8MqioEpU-q-40" target="05BpNFQ8s_8MqioEpU-q-1">
          <mxGeometry width="50" height="50" relative="1" as="geometry">
            <mxPoint x="630" y="-420" as="sourcePoint" />
            <mxPoint x="240" y="-620" as="targetPoint" />
            <Array as="points">
              <mxPoint x="1080" y="-600" />
              <mxPoint x="224" y="-600" />
            </Array>
          </mxGeometry>
        </mxCell>
        <mxCell id="05BpNFQ8s_8MqioEpU-q-56" value="IRQ" style="text;html=1;align=center;verticalAlign=middle;whiteSpace=wrap;rounded=0;" vertex="1" parent="1">
          <mxGeometry x="645" y="-603" width="60" height="30" as="geometry" />
        </mxCell>
        <mxCell id="05BpNFQ8s_8MqioEpU-q-57" value="CAN_H/L" style="text;html=1;align=center;verticalAlign=middle;whiteSpace=wrap;rounded=0;" vertex="1" parent="1">
          <mxGeometry x="1309" y="-175" width="60" height="30" as="geometry" />
        </mxCell>
        <mxCell id="05BpNFQ8s_8MqioEpU-q-59" value="&lt;font style=&quot;color: rgb(153, 153, 153);&quot;&gt;Controller&lt;/font&gt;&lt;div&gt;MCP2515&lt;/div&gt;" style="rounded=0;whiteSpace=wrap;html=1;" vertex="1" parent="1">
          <mxGeometry x="1241" y="-440" width="120" height="80" as="geometry" />
        </mxCell>
        <mxCell id="05BpNFQ8s_8MqioEpU-q-60" value="&lt;font style=&quot;color: rgb(153, 153, 153);&quot;&gt;Transceiver&lt;/font&gt;&lt;div&gt;SN65HVD230Q-Q1&lt;/div&gt;" style="rounded=0;whiteSpace=wrap;html=1;" vertex="1" parent="1">
          <mxGeometry x="1241" y="-320" width="120" height="80" as="geometry" />
        </mxCell>
        <mxCell id="05BpNFQ8s_8MqioEpU-q-61" value="RX/TX" style="text;html=1;align=center;verticalAlign=middle;whiteSpace=wrap;rounded=0;" vertex="1" parent="1">
          <mxGeometry x="1296" y="-354" width="60" height="30" as="geometry" />
        </mxCell>
        <mxCell id="05BpNFQ8s_8MqioEpU-q-62" value="" style="endArrow=classic;startArrow=classic;html=1;rounded=0;entryX=0.5;entryY=1;entryDx=0;entryDy=0;exitX=0.5;exitY=0;exitDx=0;exitDy=0;" edge="1" parent="1" source="05BpNFQ8s_8MqioEpU-q-60" target="05BpNFQ8s_8MqioEpU-q-59">
          <mxGeometry width="50" height="50" relative="1" as="geometry">
            <mxPoint x="1081" y="-200" as="sourcePoint" />
            <mxPoint x="1131" y="-250" as="targetPoint" />
          </mxGeometry>
        </mxCell>
        <mxCell id="05BpNFQ8s_8MqioEpU-q-64" value="" style="endArrow=classic;html=1;rounded=0;exitX=0.25;exitY=0;exitDx=0;exitDy=0;entryX=0.063;entryY=0;entryDx=0;entryDy=0;entryPerimeter=0;" edge="1" parent="1" source="05BpNFQ8s_8MqioEpU-q-59" target="05BpNFQ8s_8MqioEpU-q-1">
          <mxGeometry width="50" height="50" relative="1" as="geometry">
            <mxPoint x="740" y="-360" as="sourcePoint" />
            <mxPoint x="220" y="-650" as="targetPoint" />
            <Array as="points">
              <mxPoint x="1270" y="-640" />
              <mxPoint x="210" y="-640" />
            </Array>
          </mxGeometry>
        </mxCell>
        <mxCell id="05BpNFQ8s_8MqioEpU-q-65" value="IRQ" style="text;html=1;align=center;verticalAlign=middle;whiteSpace=wrap;rounded=0;" vertex="1" parent="1">
          <mxGeometry x="730" y="-640" width="60" height="30" as="geometry" />
        </mxCell>
        <mxCell id="05BpNFQ8s_8MqioEpU-q-66" value="" style="shape=flexArrow;endArrow=classic;startArrow=classic;html=1;rounded=0;" edge="1" parent="1">
          <mxGeometry width="100" height="100" relative="1" as="geometry">
            <mxPoint x="1300.33" y="-80" as="sourcePoint" />
            <mxPoint x="1300.33" y="-240" as="targetPoint" />
          </mxGeometry>
        </mxCell>
        <mxCell id="05BpNFQ8s_8MqioEpU-q-67" value="SPI" style="text;html=1;align=center;verticalAlign=middle;whiteSpace=wrap;rounded=0;" vertex="1" parent="1">
          <mxGeometry x="1178" y="-424" width="60" height="30" as="geometry" />
        </mxCell>
        <mxCell id="05BpNFQ8s_8MqioEpU-q-68" value="" style="endArrow=classic;startArrow=classic;html=1;rounded=0;entryX=1;entryY=0.75;entryDx=0;entryDy=0;exitX=1;exitY=0.5;exitDx=0;exitDy=0;" edge="1" parent="1" source="05BpNFQ8s_8MqioEpU-q-40" target="05BpNFQ8s_8MqioEpU-q-67">
          <mxGeometry width="50" height="50" relative="1" as="geometry">
            <mxPoint x="910" y="-330" as="sourcePoint" />
            <mxPoint x="960" y="-380" as="targetPoint" />
          </mxGeometry>
        </mxCell>
      </root>
    </mxGraphModel>
  </diagram>
</mxfile>
